<mxfile host="app.diagrams.net" agent="Mozilla/5.0 (Windows NT 10.0; Win64; x64; rv:134.0) Gecko/20100101 Firefox/134.0" version="26.0.10">
  <diagram name="Seite-1" id="NMpFgjQZ9R6jcfMRM4Tf">
    <mxGraphModel dx="989" dy="534" grid="1" gridSize="10" guides="1" tooltips="1" connect="1" arrows="1" fold="1" page="1" pageScale="1" pageWidth="827" pageHeight="1169" math="0" shadow="0">
      <root>
        <mxCell id="0" />
        <mxCell id="1" parent="0" />
        <mxCell id="2" value="Lobby Menu" style="rounded=1;arcSize=20;strokeWidth=2" parent="1" vertex="1">
          <mxGeometry x="140" y="398" width="80" height="83" as="geometry" />
        </mxCell>
        <mxCell id="3" value="Waiting&#xa;for Turn&#xa;Outcome" style="rounded=1;arcSize=20;strokeWidth=2" parent="1" vertex="1">
          <mxGeometry x="400" y="320" width="80" height="80" as="geometry" />
        </mxCell>
        <mxCell id="4" value="Game&#xa;Initialisation" style="rounded=1;arcSize=20;strokeWidth=2" parent="1" vertex="1">
          <mxGeometry x="300" y="398" width="80" height="83" as="geometry" />
        </mxCell>
        <mxCell id="5" value="Command&#xa;Mode" style="rounded=1;arcSize=20;strokeWidth=2" parent="1" vertex="1">
          <mxGeometry x="400" y="478" width="80" height="82" as="geometry" />
        </mxCell>
        <mxCell id="6" value="Turn Outcome&#xa;Animation" style="rounded=1;arcSize=20;strokeWidth=2" parent="1" vertex="1">
          <mxGeometry x="540" y="398" width="80" height="82" as="geometry" />
        </mxCell>
        <mxCell id="VMwdUgMinI0SOGhEo-kX-16" value="" style="endArrow=classic;html=1;rounded=0;entryX=0.5;entryY=0;entryDx=0;entryDy=0;exitX=1;exitY=0.5;exitDx=0;exitDy=0;" parent="1" source="3" target="6" edge="1">
          <mxGeometry width="50" height="50" relative="1" as="geometry">
            <mxPoint x="500" y="360" as="sourcePoint" />
            <mxPoint x="500" y="450" as="targetPoint" />
            <Array as="points">
              <mxPoint x="580" y="360" />
            </Array>
          </mxGeometry>
        </mxCell>
        <mxCell id="VMwdUgMinI0SOGhEo-kX-25" value="[Received results]" style="edgeLabel;html=1;align=center;verticalAlign=middle;resizable=0;points=[];" parent="VMwdUgMinI0SOGhEo-kX-16" vertex="1" connectable="0">
          <mxGeometry x="-0.4028" relative="1" as="geometry">
            <mxPoint x="13" y="-10" as="offset" />
          </mxGeometry>
        </mxCell>
        <mxCell id="VMwdUgMinI0SOGhEo-kX-17" value="" style="endArrow=classic;html=1;rounded=0;exitX=0.5;exitY=1;exitDx=0;exitDy=0;entryX=1;entryY=0.5;entryDx=0;entryDy=0;" parent="1" source="6" target="5" edge="1">
          <mxGeometry width="50" height="50" relative="1" as="geometry">
            <mxPoint x="450" y="500" as="sourcePoint" />
            <mxPoint x="520" y="540" as="targetPoint" />
            <Array as="points">
              <mxPoint x="580" y="520" />
            </Array>
          </mxGeometry>
        </mxCell>
        <mxCell id="VMwdUgMinI0SOGhEo-kX-24" value="[Both alive]" style="edgeLabel;html=1;align=center;verticalAlign=middle;resizable=0;points=[];" parent="VMwdUgMinI0SOGhEo-kX-17" vertex="1" connectable="0">
          <mxGeometry x="0.0984" y="-3" relative="1" as="geometry">
            <mxPoint x="-15" y="-7" as="offset" />
          </mxGeometry>
        </mxCell>
        <mxCell id="VMwdUgMinI0SOGhEo-kX-19" value="" style="endArrow=classic;html=1;rounded=0;exitX=1;exitY=0.5;exitDx=0;exitDy=0;entryX=0;entryY=0.5;entryDx=0;entryDy=0;" parent="1" source="2" target="4" edge="1">
          <mxGeometry width="50" height="50" relative="1" as="geometry">
            <mxPoint x="450" y="500" as="sourcePoint" />
            <mxPoint x="500" y="450" as="targetPoint" />
          </mxGeometry>
        </mxCell>
        <mxCell id="VMwdUgMinI0SOGhEo-kX-26" value="[Both ready]" style="edgeLabel;html=1;align=center;verticalAlign=middle;resizable=0;points=[];" parent="VMwdUgMinI0SOGhEo-kX-19" vertex="1" connectable="0">
          <mxGeometry x="-0.325" y="3" relative="1" as="geometry">
            <mxPoint x="13" y="-5" as="offset" />
          </mxGeometry>
        </mxCell>
        <mxCell id="VMwdUgMinI0SOGhEo-kX-20" value="Game&#xa;Summary" style="rounded=1;arcSize=20;strokeWidth=2" parent="1" vertex="1">
          <mxGeometry x="710" y="400" width="80" height="80" as="geometry" />
        </mxCell>
        <mxCell id="VMwdUgMinI0SOGhEo-kX-21" value="" style="endArrow=classic;html=1;rounded=0;entryX=0;entryY=0.5;entryDx=0;entryDy=0;exitX=1;exitY=0.5;exitDx=0;exitDy=0;" parent="1" source="6" target="VMwdUgMinI0SOGhEo-kX-20" edge="1">
          <mxGeometry width="50" height="50" relative="1" as="geometry">
            <mxPoint x="450" y="450" as="sourcePoint" />
            <mxPoint x="500" y="400" as="targetPoint" />
          </mxGeometry>
        </mxCell>
        <mxCell id="VMwdUgMinI0SOGhEo-kX-23" value="[Winner/draw]" style="edgeLabel;html=1;align=center;verticalAlign=middle;resizable=0;points=[];" parent="VMwdUgMinI0SOGhEo-kX-21" vertex="1" connectable="0">
          <mxGeometry x="0.0167" relative="1" as="geometry">
            <mxPoint y="-8" as="offset" />
          </mxGeometry>
        </mxCell>
        <mxCell id="VMwdUgMinI0SOGhEo-kX-29" value="" style="endArrow=none;html=1;rounded=0;exitX=1;exitY=0.5;exitDx=0;exitDy=0;" parent="1" source="4" edge="1">
          <mxGeometry width="50" height="50" relative="1" as="geometry">
            <mxPoint x="450" y="450" as="sourcePoint" />
            <mxPoint x="440" y="440" as="targetPoint" />
          </mxGeometry>
        </mxCell>
        <mxCell id="VMwdUgMinI0SOGhEo-kX-31" value="" style="endArrow=classic;html=1;rounded=0;exitX=0.5;exitY=0;exitDx=0;exitDy=0;entryX=0.5;entryY=1;entryDx=0;entryDy=0;" parent="1" source="5" target="3" edge="1">
          <mxGeometry width="50" height="50" relative="1" as="geometry">
            <mxPoint x="450" y="350" as="sourcePoint" />
            <mxPoint x="500" y="300" as="targetPoint" />
          </mxGeometry>
        </mxCell>
        <mxCell id="VMwdUgMinI0SOGhEo-kX-32" value="[Commands sent]" style="edgeLabel;html=1;align=center;verticalAlign=middle;resizable=0;points=[];" parent="VMwdUgMinI0SOGhEo-kX-31" vertex="1" connectable="0">
          <mxGeometry x="0.4359" y="-1" relative="1" as="geometry">
            <mxPoint as="offset" />
          </mxGeometry>
        </mxCell>
        <mxCell id="-4pLlPdgqRl9uQ94qwhy-6" value="" style="endArrow=classic;html=1;rounded=0;" edge="1" parent="1" target="2">
          <mxGeometry width="50" height="50" relative="1" as="geometry">
            <mxPoint x="40" y="440" as="sourcePoint" />
            <mxPoint x="440" y="380" as="targetPoint" />
          </mxGeometry>
        </mxCell>
        <mxCell id="-4pLlPdgqRl9uQ94qwhy-7" value="[Created lobby]" style="edgeLabel;html=1;align=center;verticalAlign=middle;resizable=0;points=[];" vertex="1" connectable="0" parent="-4pLlPdgqRl9uQ94qwhy-6">
          <mxGeometry x="-0.1571" y="1" relative="1" as="geometry">
            <mxPoint y="-9" as="offset" />
          </mxGeometry>
        </mxCell>
        <mxCell id="-4pLlPdgqRl9uQ94qwhy-8" value="" style="endArrow=classic;html=1;rounded=0;exitX=1;exitY=0.5;exitDx=0;exitDy=0;" edge="1" parent="1" source="VMwdUgMinI0SOGhEo-kX-20">
          <mxGeometry width="50" height="50" relative="1" as="geometry">
            <mxPoint x="390" y="430" as="sourcePoint" />
            <mxPoint x="880" y="440" as="targetPoint" />
          </mxGeometry>
        </mxCell>
        <mxCell id="-4pLlPdgqRl9uQ94qwhy-24" value="[Next game]" style="edgeLabel;html=1;align=center;verticalAlign=middle;resizable=0;points=[];" vertex="1" connectable="0" parent="-4pLlPdgqRl9uQ94qwhy-8">
          <mxGeometry x="-0.2115" y="-3" relative="1" as="geometry">
            <mxPoint x="2" y="-13" as="offset" />
          </mxGeometry>
        </mxCell>
        <mxCell id="-4pLlPdgqRl9uQ94qwhy-9" value="Command&#xa;Menu" style="rounded=1;arcSize=20;strokeWidth=2" vertex="1" parent="1">
          <mxGeometry x="514" y="624" width="80" height="42" as="geometry" />
        </mxCell>
        <mxCell id="-4pLlPdgqRl9uQ94qwhy-10" value="Move Mode" style="rounded=1;arcSize=20;strokeWidth=2" vertex="1" parent="1">
          <mxGeometry x="614" y="624" width="80" height="42" as="geometry" />
        </mxCell>
        <mxCell id="-4pLlPdgqRl9uQ94qwhy-11" value="Swap Mode" style="rounded=1;arcSize=20;strokeWidth=2" vertex="1" parent="1">
          <mxGeometry x="300" y="564" width="80" height="42" as="geometry" />
        </mxCell>
        <mxCell id="-4pLlPdgqRl9uQ94qwhy-12" value="Attack Mode" style="rounded=1;arcSize=20;strokeWidth=2" vertex="1" parent="1">
          <mxGeometry x="414" y="624" width="80" height="42" as="geometry" />
        </mxCell>
        <mxCell id="-4pLlPdgqRl9uQ94qwhy-13" value="" style="endArrow=classic;html=1;rounded=0;exitX=0;exitY=0.5;exitDx=0;exitDy=0;entryX=1;entryY=0.5;entryDx=0;entryDy=0;" edge="1" parent="1" source="-4pLlPdgqRl9uQ94qwhy-9" target="-4pLlPdgqRl9uQ94qwhy-12">
          <mxGeometry width="50" height="50" relative="1" as="geometry">
            <mxPoint x="390" y="579" as="sourcePoint" />
            <mxPoint x="480" y="615" as="targetPoint" />
          </mxGeometry>
        </mxCell>
        <mxCell id="-4pLlPdgqRl9uQ94qwhy-14" value="" style="endArrow=classic;html=1;rounded=0;exitX=1;exitY=0.5;exitDx=0;exitDy=0;entryX=0;entryY=0.5;entryDx=0;entryDy=0;" edge="1" parent="1" source="-4pLlPdgqRl9uQ94qwhy-9" target="-4pLlPdgqRl9uQ94qwhy-10">
          <mxGeometry width="50" height="50" relative="1" as="geometry">
            <mxPoint x="440" y="605" as="sourcePoint" />
            <mxPoint x="420" y="605" as="targetPoint" />
          </mxGeometry>
        </mxCell>
        <mxCell id="-4pLlPdgqRl9uQ94qwhy-17" value="No selection" style="rounded=1;arcSize=20;strokeWidth=2" vertex="1" parent="1">
          <mxGeometry x="514" y="564" width="80" height="42" as="geometry" />
        </mxCell>
        <mxCell id="-4pLlPdgqRl9uQ94qwhy-18" value="" style="endArrow=classic;html=1;rounded=0;entryX=0.5;entryY=0;entryDx=0;entryDy=0;exitX=0.5;exitY=1;exitDx=0;exitDy=0;" edge="1" parent="1" source="-4pLlPdgqRl9uQ94qwhy-17" target="-4pLlPdgqRl9uQ94qwhy-9">
          <mxGeometry width="50" height="50" relative="1" as="geometry">
            <mxPoint x="390" y="534" as="sourcePoint" />
            <mxPoint x="440" y="484" as="targetPoint" />
          </mxGeometry>
        </mxCell>
        <mxCell id="-4pLlPdgqRl9uQ94qwhy-19" value="No selection" style="rounded=1;arcSize=20;strokeWidth=2" vertex="1" parent="1">
          <mxGeometry x="300" y="498" width="80" height="42" as="geometry" />
        </mxCell>
        <mxCell id="-4pLlPdgqRl9uQ94qwhy-20" value="" style="endArrow=classic;html=1;rounded=0;entryX=0.75;entryY=0;entryDx=0;entryDy=0;exitX=0.75;exitY=1;exitDx=0;exitDy=0;" edge="1" parent="1" source="-4pLlPdgqRl9uQ94qwhy-19" target="-4pLlPdgqRl9uQ94qwhy-11">
          <mxGeometry width="50" height="50" relative="1" as="geometry">
            <mxPoint x="460" y="622" as="sourcePoint" />
            <mxPoint x="460" y="640" as="targetPoint" />
          </mxGeometry>
        </mxCell>
        <mxCell id="-4pLlPdgqRl9uQ94qwhy-21" value="" style="endArrow=classic;html=1;rounded=0;entryX=0.25;entryY=1;entryDx=0;entryDy=0;exitX=0.25;exitY=0;exitDx=0;exitDy=0;" edge="1" parent="1" source="-4pLlPdgqRl9uQ94qwhy-11" target="-4pLlPdgqRl9uQ94qwhy-19">
          <mxGeometry width="50" height="50" relative="1" as="geometry">
            <mxPoint x="470" y="632" as="sourcePoint" />
            <mxPoint x="470" y="650" as="targetPoint" />
          </mxGeometry>
        </mxCell>
        <mxCell id="-4pLlPdgqRl9uQ94qwhy-22" value="" style="endArrow=classic;html=1;rounded=0;entryX=0;entryY=0.5;entryDx=0;entryDy=0;exitX=0.5;exitY=0;exitDx=0;exitDy=0;" edge="1" parent="1" source="-4pLlPdgqRl9uQ94qwhy-12" target="-4pLlPdgqRl9uQ94qwhy-17">
          <mxGeometry width="50" height="50" relative="1" as="geometry">
            <mxPoint x="440" y="594" as="sourcePoint" />
            <mxPoint x="500" y="604" as="targetPoint" />
          </mxGeometry>
        </mxCell>
        <mxCell id="-4pLlPdgqRl9uQ94qwhy-23" value="" style="endArrow=classic;html=1;rounded=0;entryX=1;entryY=0.5;entryDx=0;entryDy=0;exitX=0.5;exitY=0;exitDx=0;exitDy=0;" edge="1" parent="1" source="-4pLlPdgqRl9uQ94qwhy-10" target="-4pLlPdgqRl9uQ94qwhy-17">
          <mxGeometry width="50" height="50" relative="1" as="geometry">
            <mxPoint x="510" y="596" as="sourcePoint" />
            <mxPoint x="510" y="614" as="targetPoint" />
          </mxGeometry>
        </mxCell>
      </root>
    </mxGraphModel>
  </diagram>
</mxfile>
